# Blender v2.79 (sub 0) OBJ File: 'SpaceShip.blend'
# www.blender.org
mtllib SpaceShip.mtl
#o SpaceShip_Cube
v 2.235410 -0.802024 -2.485978
v 2.134753 -0.955598 1.940384
v -2.343821 -0.803648 1.558391
v -2.008148 -0.912243 -2.807978
v 1.026532 1.274686 -1.433686
v 0.995539 1.284023 0.545660
v -0.989380 1.286285 0.542864
v -0.986590 1.346433 -1.442050
v 0.994665 -0.703458 -0.441669
v 0.003601 -0.639613 -1.435524
v 1.023208 0.276012 -1.395443
v 0.000811 -0.699761 0.549390
v 0.991999 0.086997 0.601607
v -0.990254 -0.635916 -0.444465
v -1.034129 0.103492 0.532990
v -1.012226 0.386430 -1.425055
v 0.996935 1.281457 -0.446797
v 0.005870 1.345302 -1.440652
v 0.003079 1.285154 0.544262
v -0.987985 1.283719 -0.449593
v 0.004735 0.352845 -1.438088
v -0.989120 0.356542 -0.447029
v 0.019302 0.117274 0.630147
v 0.995800 0.289000 -0.444233
v 0.063910 3.274521 -0.448861
v 0.150046 -19.992790 0.684133
v -0.029826 -1.447769 0.479183
v -1.067421 -1.369729 0.405234
v 0.273233 0.824268 0.641646
v -1.884820 -0.167219 3.139763
vn -0.8226 -0.0813 -0.5627
vn -0.6635 0.3503 0.6611
vn 1.0000 -0.0028 0.0031
vn -0.0918 -0.0048 0.9958
vn -0.9997 0.0013 0.0237
vn -0.0129 -0.0026 -0.9999
vn 0.0014 -0.0177 -0.9998
vn 0.0066 -0.0026 -1.0000
vn 0.0416 -0.0026 -0.9991
vn -0.8854 0.3117 0.3449
vn -0.7180 0.5392 -0.4401
vn -0.9986 0.0381 -0.0360
vn 0.3361 0.4500 0.8274
vn -0.4322 0.4945 0.7541
vn 0.0307 0.0466 0.9984
vn 0.8202 0.4570 -0.3442
vn 0.7843 0.4209 0.4557
vn 0.9996 -0.0011 0.0288
vn 0.0011 1.0000 -0.0026
vn 0.0691 0.9976 -0.0048
vn -0.6711 0.3548 -0.6509
vn 0.0784 -0.9935 0.0824
vn -0.0699 -0.9975 0.0057
vn 0.7061 0.0104 0.7080
vn 0.3949 0.0095 0.9187
vn 1.0000 -0.0011 0.0014
vn -0.0013 0.0733 0.9973
vn -0.9996 0.0267 0.0003
vn 0.4570 0.4602 -0.7612
vn 0.0389 -0.0384 -0.9985
vn -0.3575 0.4343 -0.8268
vn -0.9997 0.0012 0.0237
vn -0.9990 0.0010 -0.0456
vn -1.0000 0.0012 -0.0014
vn -0.0902 -0.0959 0.9913
vn 0.0261 -0.0989 0.9948
vn 1.0000 -0.0011 0.0034
vn 0.9995 -0.0022 0.0300
vn 0.6708 0.3147 0.6715
vn 0.6814 0.3183 -0.6591
vn 0.0010 0.9980 0.0631
vn -0.7039 -0.0826 -0.7055
vn 0.7039 -0.0721 -0.7066
vn -0.0736 -0.9948 -0.0701
g SpaceShip_Cube_Material
usemtl Material
s off
f 26//1 3//1 14//1
g SpaceShip_Cube_Black
usemtl Black
f 20//2 19//2 25//2
g SpaceShip_Cube_White
usemtl White
f 24//3 6//3 13//3
f 23//4 7//4 15//4
f 20//5 16//5 22//5
f 10//6 16//6 21//6
f 18//7 16//7 8//7
f 5//8 21//8 18//8
f 11//9 10//9 21//9
f 14//10 16//10 4//10
f 15//11 14//11 3//11
f 7//12 22//12 15//12
f 12//13 15//13 3//13
f 13//14 12//14 2//14
f 6//15 23//15 13//15
f 9//16 13//16 2//16
f 11//17 9//17 1//17
f 11//18 17//18 24//18
g SpaceShip_Cube_Black
usemtl Black
f 17//19 19//19 6//19
f 18//20 17//20 5//20
f 18//21 20//21 25//21
g SpaceShip_Cube_Material
usemtl Material
f 10//22 14//22 4//22
f 9//23 10//23 1//23
f 9//24 12//24 26//24
f 26//25 12//25 3//25
g SpaceShip_Cube_Black
usemtl Black
f 20//19 7//19 19//19
g SpaceShip_Cube_White
usemtl White
f 24//26 17//26 6//26
f 23//27 19//27 7//27
f 20//28 8//28 16//28
f 10//29 4//29 16//29
f 18//6 21//6 16//6
f 5//30 11//30 21//30
f 11//31 1//31 10//31
f 14//32 22//32 16//32
f 15//33 22//33 14//33
f 7//34 20//34 22//34
f 12//35 23//35 15//35
f 13//36 23//36 12//36
f 6//27 19//27 23//27
f 9//37 24//37 13//37
f 11//18 24//18 9//18
f 11//38 5//38 17//38
g SpaceShip_Cube_Black
usemtl Black
f 17//39 25//39 19//39
f 18//40 25//40 17//40
f 18//41 8//41 20//41
g SpaceShip_Cube_Material
usemtl Material
f 10//42 26//42 14//42
f 9//43 26//43 10//43
f 9//44 2//44 12//44
l 27 28
